<svg xmlns="http://www.w3.org/2000/svg" viewBox="0 0 480 360" width="480" height="360" role="img" aria-labelledby="t4">
  <title id="t4">Chalice and host symbolic illustration</title>
  <defs>
    <linearGradient id="chalice" x1="0%" y1="0%" x2="0%" y2="100%">
      <stop offset="0%" style="stop-color:#d8e4e0"/>
      <stop offset="45%" style="stop-color:#9eb5ad"/>
      <stop offset="100%" style="stop-color:#5c756c"/>
    </linearGradient>
    <radialGradient id="host" cx="50%" cy="50%" r="50%">
      <stop offset="0%" style="stop-color:#fffef9"/>
      <stop offset="70%" style="stop-color:#eef2f0"/>
      <stop offset="100%" style="stop-color:#c5cec9"/>
    </radialGradient>
  </defs>
  <rect width="480" height="360" fill="#1e2c28" rx="8"/>
  <ellipse cx="240" cy="300" rx="160" ry="18" fill="#0f1815" opacity="0.45"/>
  <path d="M200 280 L200 200 Q200 120 240 100 Q280 120 280 200 L280 280 Z" fill="url(#chalice)" stroke="#4a5f58" stroke-width="1.5"/>
  <path d="M185 280 L295 280 L288 295 L192 295 Z" fill="#4a5f58"/>
  <rect x="228" y="295" width="24" height="40" fill="url(#chalice)"/>
  <ellipse cx="240" cy="338" rx="42" ry="10" fill="#3d4f49"/>
  <circle cx="240" cy="155" r="38" fill="url(#host)" stroke="#6a9e90" stroke-width="2"/>
  <g fill="none" stroke="#3a7d6d" stroke-width="1.8" opacity="0.7">
    <line x1="240" y1="125" x2="240" y2="185"/>
    <line x1="210" y1="155" x2="270" y2="155"/>
  </g>
  <g stroke="#7eb3a5" stroke-width="1" opacity="0.22">
    <line x1="240" y1="155" x2="240" y2="55"/>
    <line x1="240" y1="155" x2="120" y2="100"/>
    <line x1="240" y1="155" x2="360" y2="100"/>
  </g>
</svg>
