<svg xmlns="http://www.w3.org/2000/svg" viewBox="0 0 400 560" width="400" height="560" role="img" aria-labelledby="t3">
  <title id="t3">Decorative stained glass arch motif</title>
  <defs>
    <linearGradient id="frame" x1="0%" y1="0%" x2="100%" y2="0%">
      <stop offset="0%" style="stop-color:#722f37"/>
      <stop offset="50%" style="stop-color:#8b3a44"/>
      <stop offset="100%" style="stop-color:#722f37"/>
    </linearGradient>
  </defs>
  <rect x="0" y="0" width="400" height="560" rx="12" fill="#152238"/>
  <path d="M40 520 L40 180 Q200 40 360 180 L360 520 Z" fill="none" stroke="url(#frame)" stroke-width="14"/>
  <!-- Panes -->
  <path d="M200 100 L260 200 L200 300 L140 200 Z" fill="#243652" stroke="#d4af37" stroke-width="2" opacity="0.95"/>
  <path d="M200 300 L280 380 L200 480 L120 380 Z" fill="#722f37" stroke="#d4af37" stroke-width="2" opacity="0.75"/>
  <path d="M80 220 L140 200 L120 380 L70 340 Z" fill="#1e4d6b" stroke="#d4af37" stroke-width="1.5" opacity="0.8"/>
  <path d="M320 220 L260 200 L280 380 L330 340 Z" fill="#2d5a4a" stroke="#d4af37" stroke-width="1.5" opacity="0.8"/>
  <circle cx="200" cy="200" r="12" fill="#d4af37" opacity="0.9"/>
  <line x1="200" y1="100" x2="200" y2="480" stroke="#d4af37" stroke-width="1.5" opacity="0.5"/>
  <line x1="120" y1="380" x2="280" y2="380" stroke="#d4af37" stroke-width="1.5" opacity="0.5"/>
</svg>
