<svg xmlns="http://www.w3.org/2000/svg" viewBox="0 0 400 560" width="400" height="560" role="img" aria-labelledby="st">
  <title id="st">Ornamental arch — green and grey motif</title>
  <defs>
    <linearGradient id="frame" x1="0%" y1="0%" x2="100%" y2="0%">
      <stop offset="0%" style="stop-color:#3d524c"/>
      <stop offset="50%" style="stop-color:#5a7268"/>
      <stop offset="100%" style="stop-color:#3d524c"/>
    </linearGradient>
    <linearGradient id="leaf" x1="0%" y1="0%" x2="100%" y2="100%">
      <stop offset="0%" style="stop-color:#2f4a42"/>
      <stop offset="100%" style="stop-color:#1a2824"/>
    </linearGradient>
  </defs>
  <rect width="400" height="560" rx="12" fill="#1e2c28"/>
  <path d="M40 520 L40 180 Q200 35 360 180 L360 520 Z" fill="none" stroke="url(#frame)" stroke-width="14"/>
  <path d="M200 90 L200 480 M120 200 L280 200 M140 320 L260 320" stroke="#6a9e90" stroke-width="1" opacity="0.3"/>
  <path d="M200 100 L260 200 L200 300 L140 200 Z" fill="url(#leaf)" stroke="#7eb3a5" stroke-width="2"/>
  <path d="M200 300 L280 400 L200 480 L120 400 Z" fill="#3a5248" stroke="#7eb3a5" stroke-width="2" opacity="0.88"/>
  <path d="M90 230 L140 200 L120 400 L75 360 Z" fill="#2a4540" stroke="#6a9e90" stroke-width="1.2" opacity="0.75"/>
  <path d="M310 230 L260 200 L280 400 L325 360 Z" fill="#2a4540" stroke="#6a9e90" stroke-width="1.2" opacity="0.75"/>
  <circle cx="200" cy="200" r="14" fill="#6a9e90"/>
  <g fill="#c5d9d3">
    <rect x="196" y="232" width="8" height="36" rx="1"/>
    <rect x="184" y="244" width="32" height="8" rx="1"/>
  </g>
</svg>
