<svg xmlns="http://www.w3.org/2000/svg" viewBox="0 0 640 400" width="640" height="400" role="img" aria-labelledby="wt">
  <title id="wt">Parish community in fellowship</title>
  <defs>
    <linearGradient id="bg" x1="0%" y1="0%" x2="100%" y2="100%">
      <stop offset="0%" style="stop-color:#f0ebe3"/>
      <stop offset="100%" style="stop-color:#e5f0ec"/>
    </linearGradient>
    <linearGradient id="robe" x1="0%" y1="0%" x2="0%" y2="100%">
      <stop offset="0%" style="stop-color:#0f2419"/>
      <stop offset="100%" style="stop-color:#1a3d32"/>
    </linearGradient>
  </defs>
  <rect width="640" height="400" rx="12" fill="url(#bg)"/>
  <path d="M0 320 Q160 280 320 300 T640 290 V400 H0 Z" fill="#0f2419" opacity="0.06"/>
  <g fill="url(#robe)" opacity="0.92">
    <ellipse cx="200" cy="175" rx="22" ry="24"/>
    <path d="M175 210 Q200 195 225 210 L235 320 L165 320 Z"/>
    <ellipse cx="320" cy="165" rx="26" ry="28"/>
    <path d="M288 205 Q320 185 352 205 L368 330 L272 330 Z"/>
    <ellipse cx="440" cy="178" rx="22" ry="24"/>
    <path d="M415 212 Q440 198 465 212 L475 318 L405 318 Z"/>
  </g>
  <circle cx="320" cy="238" r="8" fill="#6b0f23" opacity="0.85"/>
  <path d="M310 248 L330 248 L320 268 Z" fill="#c9a227" opacity="0.9"/>
  <path d="M80 100 Q320 50 560 95" fill="none" stroke="#c9a227" stroke-width="1.5" opacity="0.35" stroke-linecap="round"/>
</svg>
